<?xml version="1.0" encoding="UTF-8" standalone="no"?>
<svg
   xmlns:dc="http://purl.org/dc/elements/1.1/"
   xmlns:cc="http://creativecommons.org/ns#"
   xmlns:rdf="http://www.w3.org/1999/02/22-rdf-syntax-ns#"
   xmlns:svg="http://www.w3.org/2000/svg"
   xmlns="http://www.w3.org/2000/svg"
   version="1.1"
   id="svg2"
   viewBox="0 0 59.109967 59.109963"
   height="16.682146mm"
   width="16.682146mm">
  <defs
     id="defs4">
    <linearGradient
       id="linearGradient3257">
      <stop
         offset="0"
         style="stop-color:#a50000;stop-opacity:1"
         id="stop3259" />
      <stop
         offset="1"
         style="stop-color:#e73800;stop-opacity:1"
         id="stop3261" />
    </linearGradient>
    <clipPath
       clipPathUnits="userSpaceOnUse"
       id="clipPath4210">
      <rect
         y="1024.3622"
         x="-7"
         height="34"
         width="34"
         id="rect4212"
         style="opacity:1;fill:#0000ff;fill-opacity:0.51376145;stroke:none;stroke-opacity:1" />
    </clipPath>
    <clipPath
       clipPathUnits="userSpaceOnUse"
       id="clipPath4160">
      <rect
         style="opacity:1;fill:#aade87;fill-opacity:0.47247709;stroke:none;stroke-opacity:1"
         id="rect4162"
         width="32"
         height="32.000015"
         x="-6"
         y="1028.3619" />
    </clipPath>
  </defs>
  <metadata
     id="metadata7">
    <rdf:RDF>
      <cc:Work
         rdf:about="">
        <dc:format>image/svg+xml</dc:format>
        <dc:type
           rdf:resource="http://purl.org/dc/dcmitype/StillImage" />
        <dc:title></dc:title>
      </cc:Work>
    </rdf:RDF>
  </metadata>
  <g
     style="display:none"
     transform="translate(-107.58631,-324.76855)"
     id="layer1">
    <rect
       y="325.29211"
       x="167.63307"
       height="179.10437"
       width="179.10446"
       id="rect4138"
       style="opacity:1;fill:none;fill-opacity:1;stroke:#000000;stroke-width:0.89552212;stroke-miterlimit:4;stroke-dasharray:none;stroke-opacity:1" />
  </g>
  <g
     style="display:inline"
     transform="translate(59.59901,3.8244381)"
     id="layer2" />
  <g
     transform="translate(59.599001,0.0758058)"
     style="display:inline"
     id="layer3">
    <g
       id="layer1-7"
       transform="matrix(3.0992232,0,0,3.0992232,-1077.5815,-1657.6208)">
      <path
         style="opacity:1;fill:#4d4d4d;fill-opacity:1;stroke:none"
         d="m 338,536.3622 -0.70703,0.70703 -7.29297,7.29297 0.70703,0.70703 0.29297,-0.29297 0,7.58594 1,0 5,0 3,0 5,0 0,-1 0,-6.58594 0.29297,0.29297 0.70703,-0.70703 -3,-3 0,-3 -3,0 -1.29297,-1.29297 L 338,536.3622 Z m 0,1.41406 6,6 0,7.58594 -4,0 0,-5 -3,0 -1,0 0,5 -4,0 0,-7.58594 6,-6 z"
         id="rect4164" />
    </g>
  </g>
  <g
     transform="translate(59.599001,0.0758058)"
     style="display:inline"
     id="layer4" />
  <g
     transform="translate(59.599001,0.0758058)"
     style="display:inline"
     id="layer5" />
  <g
     transform="translate(59.599001,0.0758058)"
     style="display:inline"
     id="layer6" />
</svg>
